<svg
                                                            width="20px" height="20px" viewBox="0 0 20 20" fill="none"
                                                            xmlns="http://www.w3.org/2000/svg" color="currentColor"
                                                            class="w-1.5 h-1.5"><path
                                                            d="M8.80265 2.77279C9.22699 1.48311 11.051 1.48311 11.4753 2.77279L12.7457 6.63549C12.8854 7.05983 13.218 7.3925 13.6424 7.53217L17.5051 8.80251C18.7947 9.22685 18.7947 11.0509 17.5051 11.4752L13.6424 12.7455C13.218 12.8852 12.8854 13.2179 12.7457 13.6422L11.4753 17.5049C11.051 18.7946 9.22699 18.7946 8.80265 17.5049L7.5323 13.6422C7.39264 13.2179 7.05996 12.8852 6.63563 12.7455L2.77292 11.4752C1.48324 11.0509 1.48324 9.22685 2.77292 8.80251L6.63563 7.53217C7.05996 7.3925 7.39264 7.05983 7.5323 6.63549L8.80265 2.77279Z"
                                                            fill="currentColor"></path></svg>