<?xml version='1.0' encoding='utf-8'?>
<svg xmlns:ns0="http://www.w3.org/2000/svg" xmlns="http://www.w3.org/2000/svg" style="display: none;">
  <symbol id="icon-2" viewBox="0 0 20 20">
    <ns0:rect x="7" y="6.5" width="7" height="1.5" rx="0.75" transform="rotate(90 7 6.5)" fill="currentColor" />
    <ns0:rect x="3" y="4" width="14" height="12" rx="2.8" stroke="currentColor" stroke-width="1.5" />
  </symbol>
  <symbol id="icon-3" viewBox="0 0 20 20">
    <ns0:path d="M8.31982 5.1875V14.8125" stroke="currentColor" stroke-width="1.5" stroke-linecap="round" />
    <ns0:path d="M5.1875 8.6875V11.3125" stroke="currentColor" stroke-width="1.5" stroke-linecap="round" />
    <ns0:path d="M11.6802 6.35416V13.6458" stroke="currentColor" stroke-width="1.5" stroke-linecap="round" />
    <ns0:path d="M14.8125 8.6875V11.3125" stroke="currentColor" stroke-width="1.5" stroke-linecap="round" />
  </symbol>
  <symbol id="icon-4" viewBox="0 0 20 20">
    <ns0:path d="M8.80265 2.77279C9.22699 1.48311 11.051 1.48311 11.4753 2.77279L12.7457 6.63549C12.8854 7.05983 13.218 7.3925 13.6424 7.53217L17.5051 8.80251C18.7947 9.22685 18.7947 11.0509 17.5051 11.4752L13.6424 12.7455C13.218 12.8852 12.8854 13.2179 12.7457 13.6422L11.4753 17.5049C11.051 18.7946 9.22699 18.7946 8.80265 17.5049L7.5323 13.6422C7.39264 13.2179 7.05996 12.8852 6.63563 12.7455L2.77292 11.4752C1.48324 11.0509 1.48324 9.22685 2.77292 8.80251L6.63563 7.53217C7.05996 7.3925 7.39264 7.05983 7.5323 6.63549L8.80265 2.77279Z" fill="currentColor" />
  </symbol>
  <symbol id="icon-5" viewBox="0 0 20 20">
    <ns0:path d="M8.80265 2.77279C9.22699 1.48311 11.051 1.48311 11.4753 2.77279L12.7457 6.63549C12.8854 7.05983 13.218 7.3925 13.6424 7.53217L17.5051 8.80251C18.7947 9.22685 18.7947 11.0509 17.5051 11.4752L13.6424 12.7455C13.218 12.8852 12.8854 13.2179 12.7457 13.6422L11.4753 17.5049C11.051 18.7946 9.22699 18.7946 8.80265 17.5049L7.5323 13.6422C7.39264 13.2179 7.05996 12.8852 6.63563 12.7455L2.77292 11.4752C1.48324 11.0509 1.48324 9.22685 2.77292 8.80251L6.63563 7.53217C7.05996 7.3925 7.39264 7.05983 7.5323 6.63549L8.80265 2.77279Z" fill="currentColor" />
  </symbol>
  <symbol id="icon-6" viewBox="0 0 20 20">
    <ns0:path d="M8.80265 2.77279C9.22699 1.48311 11.051 1.48311 11.4753 2.77279L12.7457 6.63549C12.8854 7.05983 13.218 7.3925 13.6424 7.53217L17.5051 8.80251C18.7947 9.22685 18.7947 11.0509 17.5051 11.4752L13.6424 12.7455C13.218 12.8852 12.8854 13.2179 12.7457 13.6422L11.4753 17.5049C11.051 18.7946 9.22699 18.7946 8.80265 17.5049L7.5323 13.6422C7.39264 13.2179 7.05996 12.8852 6.63563 12.7455L2.77292 11.4752C1.48324 11.0509 1.48324 9.22685 2.77292 8.80251L6.63563 7.53217C7.05996 7.3925 7.39264 7.05983 7.5323 6.63549L8.80265 2.77279Z" fill="currentColor" />
  </symbol>
  <symbol id="icon-7" viewBox="0 0 24 24">
    <ns0:path d="m7 15 5 5 5-5" />
    <ns0:path d="m7 9 5-5 5 5" />
  </symbol>
  <symbol id="icon-8" viewBox="0 0 20 20">
    <ns0:path d="M8.31842 2.82462L8.79137 3.4067L8.31842 2.82462ZM9.55075 2.00081L9.34859 1.27857L9.55075 2.00081ZM11.6816 2.82462L12.1545 2.24253L11.6816 2.82462ZM10.4493 2.00081L10.6514 1.27857L10.4493 2.00081ZM4.24335 16.485L4.58384 15.8168L4.24335 16.485ZM3.51499 15.7566L4.18325 15.4162L3.51499 15.7566ZM16.485 15.7566L15.8168 15.4162L16.485 15.7566ZM15.7567 16.485L15.4162 15.8168L15.7567 16.485ZM16.6078 7.22929L15.8843 7.42684L16.6078 7.22929ZM15.6816 6.07462L15.2086 6.6567L15.6816 6.07462ZM16.3546 6.69727L16.9642 6.26031L16.3546 6.69727ZM3.39219 7.22929L4.11571 7.42684L3.39219 7.22929ZM4.31842 6.07462L3.84548 5.49253L4.31842 6.07462ZM3.64542 6.69727L3.03585 6.26031L3.64542 6.69727ZM6.66667 12.5833C6.25246 12.5833 5.91667 12.9191 5.91667 13.3333C5.91667 13.7475 6.25246 14.0833 6.66667 14.0833V12.5833ZM13.3333 14.0833C13.7475 14.0833 14.0833 13.7475 14.0833 13.3333C14.0833 12.9191 13.7475 12.5833 13.3333 12.5833V14.0833ZM16.6667 8.14425H15.9167V14H16.6667H17.4167V8.14425H16.6667ZM14 16.6667V15.9167H6V16.6667V17.4167H14V16.6667ZM3.33334 14H4.08334V8.14425H3.33334H2.58334V14H3.33334ZM4.31842 6.07462L4.79137 6.6567L8.79137 3.4067L8.31842 2.82462L7.84548 2.24253L3.84548 5.49253L4.31842 6.07462ZM11.6816 2.82462L11.2086 3.4067L15.2086 6.6567L15.6816 6.07462L16.1545 5.49253L12.1545 2.24253L11.6816 2.82462ZM8.31842 2.82462L8.79137 3.4067C9.09961 3.15626 9.29964 2.99434 9.46314 2.88044C9.61888 2.77194 9.69878 2.7382 9.75291 2.72305L9.55075 2.00081L9.34859 1.27857C9.06953 1.35668 8.83297 1.49133 8.6057 1.64967C8.38619 1.80259 8.13666 2.00595 7.84548 2.24253L8.31842 2.82462ZM11.6816 2.82462L12.1545 2.24253C11.8633 2.00595 11.6138 1.80259 11.3943 1.64967C11.167 1.49133 10.9305 1.35668 10.6514 1.27857L10.4493 2.00081L10.2471 2.72305C10.3012 2.7382 10.3811 2.77194 10.5369 2.88044C10.7004 2.99434 10.9004 3.15626 11.2086 3.4067L11.6816 2.82462ZM9.55075 2.00081L9.75291 2.72305C9.91453 2.67781 10.0855 2.67781 10.2471 2.72305L10.4493 2.00081L10.6514 1.27857C10.2253 1.1593 9.77468 1.1593 9.34859 1.27857L9.55075 2.00081ZM6 16.6667V15.9167C5.52092 15.9167 5.20671 15.9161 4.96641 15.8965C4.73487 15.8775 4.63875 15.8447 4.58384 15.8168L4.24335 16.485L3.90286 17.1533C4.20447 17.3069 4.51996 17.365 4.84427 17.3915C5.15981 17.4172 5.54567 17.4167 6 17.4167V16.6667ZM3.33334 14H2.58334C2.58334 14.4543 2.58275 14.8402 2.60853 15.1557C2.63503 15.48 2.69306 15.7955 2.84674 16.0971L3.51499 15.7566L4.18325 15.4162C4.15527 15.3612 4.12247 15.2651 4.10355 15.0336C4.08392 14.7933 4.08334 14.4791 4.08334 14H3.33334ZM4.24335 16.485L4.58384 15.8168C4.41136 15.7289 4.27113 15.5886 4.18325 15.4162L3.51499 15.7566L2.84674 16.0971C3.07843 16.5519 3.44813 16.9216 3.90286 17.1533L4.24335 16.485ZM16.6667 14H15.9167C15.9167 14.4791 15.9161 14.7933 15.8965 15.0336C15.8775 15.2651 15.8447 15.3612 15.8168 15.4162L16.485 15.7566L17.1533 16.0971C17.3069 15.7955 17.365 15.48 17.3915 15.1557C17.4173 14.8402 17.4167 14.4543 17.4167 14H16.6667ZM14 16.6667V17.4167C14.4543 17.4167 14.8402 17.4172 15.1557 17.3915C15.48 17.365 15.7955 17.3069 16.0971 17.1533L15.7567 16.485L15.4162 15.8168C15.3613 15.8447 15.2651 15.8775 15.0336 15.8965C14.7933 15.9161 14.4791 15.9167 14 15.9167V16.6667ZM16.485 15.7566L15.8168 15.4162C15.7289 15.5886 15.5886 15.7289 15.4162 15.8168L15.7567 16.485L16.0971 17.1533C16.5519 16.9216 16.9216 16.5519 17.1533 16.0971L16.485 15.7566ZM16.6667 8.14425H17.4167C17.4167 7.71926 17.4229 7.36702 17.3313 7.03174L16.6078 7.22929L15.8843 7.42684C15.9105 7.52266 15.9167 7.6367 15.9167 8.14425H16.6667ZM15.6816 6.07462L15.2086 6.6567C15.6026 6.97677 15.6872 7.05349 15.745 7.13422L16.3546 6.69727L16.9642 6.26031C16.7617 5.97784 16.4844 5.76053 16.1545 5.49253L15.6816 6.07462ZM16.6078 7.22929L17.3313 7.03174C17.2557 6.75483 17.1314 6.49361 16.9642 6.26031L16.3546 6.69727L15.745 7.13422C15.8085 7.22272 15.8556 7.3218 15.8843 7.42684L16.6078 7.22929ZM3.33334 8.14425H4.08334C4.08334 7.6367 4.08954 7.52266 4.11571 7.42684L3.39219 7.22929L2.66868 7.03174C2.57713 7.36702 2.58334 7.71926 2.58334 8.14425H3.33334ZM4.31842 6.07462L3.84548 5.49253C3.51563 5.76053 3.23834 5.97784 3.03585 6.26031L3.64542 6.69727L4.25498 7.13422C4.31285 7.05349 4.39744 6.97676 4.79137 6.6567L4.31842 6.07462ZM3.39219 7.22929L4.11571 7.42684C4.14438 7.3218 4.19155 7.22272 4.25498 7.13422L3.64542 6.69727L3.03585 6.26031C2.86862 6.49361 2.74428 6.75483 2.66868 7.03174L3.39219 7.22929ZM6.66667 13.3333V14.0833H13.3333V13.3333V12.5833H6.66667V13.3333Z" fill="currentColor" />
  </symbol>
  <symbol id="icon-9" viewBox="0 0 20 20">
    <ns0:circle cx="5.625" cy="5.625" r="3.125" stroke="currentColor" stroke-width="1.5" />
    <ns0:circle cx="5.625" cy="14.375" r="3.125" stroke="currentColor" stroke-width="1.5" />
    <ns0:circle cx="14.375" cy="5.625" r="3.125" stroke="currentColor" stroke-width="1.5" />
    <ns0:circle cx="14.375" cy="14.375" r="3.125" stroke="currentColor" stroke-width="1.5" />
  </symbol>
  <symbol id="icon-10" viewBox="0 0 24 24">
    <ns0:path d="M5 12h14" />
    <ns0:path d="M12 5v14" />
  </symbol>
  <symbol id="icon-11" viewBox="0 0 20 20">
    <ns0:path d="M16.2439 3.125C18.1965 5.07762 18.1965 8.24345 16.2439 10.1961M13.8868 5.48202C14.5377 6.1329 14.5377 7.18817 13.8868 7.83905" stroke="currentColor" stroke-width="1.5" stroke-linecap="round" />
    <ns0:path d="M6.6297 14.3522C7.39353 14.3522 8.15735 13.9694 8.49936 13.3182H8.53357V13.6324C8.56777 14.1237 8.88128 14.375 9.33159 14.375C9.80471 14.375 10.141 14.0894 10.141 13.5353V10.045C10.141 8.81116 9.12069 8 7.55313 8C6.28769 8 5.30725 8.45128 5.02224 9.18246C4.96524 9.30813 4.93674 9.42809 4.93674 9.55948C4.93674 9.93649 5.22745 10.1993 5.63216 10.1993C5.90007 10.1993 6.11098 10.0964 6.29339 9.89079C6.6639 9.41095 6.97171 9.2453 7.47903 9.2453C8.10605 9.2453 8.50507 9.57661 8.50507 10.1479V10.5534L6.96601 10.6448C5.43836 10.7362 4.58333 11.3817 4.58333 12.4956C4.58333 13.5981 5.46686 14.3522 6.6297 14.3522ZM7.17692 13.1468C6.6183 13.1468 6.24209 12.8612 6.24209 12.4042C6.24209 11.9701 6.5955 11.6902 7.21682 11.6445L8.50507 11.5645V12.0101C8.50507 12.6727 7.90654 13.1468 7.17692 13.1468Z" fill="currentColor" />
    <ns0:path d="M10 3.33333H5C3.61929 3.33333 2.5 4.45262 2.5 5.83333V14.1667C2.5 15.5474 3.61929 16.6667 5 16.6667H15C16.3807 16.6667 17.5 15.5474 17.5 14.1667V13.3333" stroke="currentColor" stroke-width="1.5" stroke-linecap="round" />
  </symbol>
  <symbol id="icon-12" viewBox="0 0 20 20">
    <ns0:path d="M10.3258 5.88235C10.3258 7.47423 9.06066 8.76471 7.5 8.76471C5.93934 8.76471 4.67418 7.47423 4.67418 5.88235C4.67418 4.29047 5.93934 3 7.5 3C9.06066 3 10.3258 4.29047 10.3258 5.88235Z" stroke="currentColor" stroke-width="1.5" stroke-linejoin="round" />
    <ns0:path d="M7.5 11.2353C5.09526 11.2353 3.20018 12.515 2.19824 14.4158C1.52238 15.6981 2.67793 17 4.10519 17H10.8948C12.3221 17 13.4776 15.6981 12.8018 14.4158C11.7998 12.515 9.90473 11.2353 7.5 11.2353Z" stroke="currentColor" stroke-width="1.5" stroke-linejoin="round" />
    <ns0:path d="M15.6187 5C17.5713 6.95262 17.5713 10.1184 15.6187 12.0711M13.2616 7.35702C13.9125 8.0079 13.9125 9.06317 13.2616 9.71405" stroke="currentColor" stroke-width="1.5" stroke-linecap="round" />
  </symbol>
  <symbol id="icon-13" viewBox="0 0 20 20">
    <ns0:path d="M9.99984 2.29167L10.8007 3.84616C11.36 4.93178 12.6218 5.45443 13.7849 5.08227L15.4504 4.54938L14.9176 6.21488C14.5454 7.37802 15.0681 8.63983 16.1537 9.19917L17.7082 10L16.4892 10.628C15.2642 11.2592 14.7808 12.7627 15.4087 13.9894L16.8968 16.8969L13.9893 15.4088C12.7625 14.781 11.259 15.2643 10.6278 16.4893L9.99984 17.7083L9.199 16.1538C8.63967 15.0682 7.37786 14.5456 6.21472 14.9178L4.54922 15.4506L5.08211 13.7851C5.45427 12.622 4.93162 11.3602 3.846 10.8008L2.2915 10L3.51048 9.372C4.73554 8.74083 5.21882 7.23736 4.59097 6.01061L3.1029 3.10307L6.01045 4.59113C7.2372 5.21898 8.74067 4.7357 9.37184 3.51064L9.99984 2.29167Z" stroke="currentColor" stroke-width="1.5" stroke-linejoin="round" />
  </symbol>
  <symbol id="icon-14" viewBox="0 0 20 20">
    <ns0:path d="M10.625 6.45834C12.5776 8.41096 12.5776 11.5768 10.625 13.5294M8.26798 8.81537C8.91885 9.46624 8.91885 10.5215 8.26798 11.1724" stroke="currentColor" stroke-width="1.5" stroke-linecap="round" />
    <ns0:path d="M17 12.2V14.2C17 15.7464 15.7464 17 14.2 17H12.2M17 7.8V5.8C17 4.2536 15.7464 3 14.2 3H12.2M7.79999 17H5.79999C4.25359 17 2.99998 15.7464 2.99998 14.2V12.2M2.99998 7.8V5.8C2.99998 4.2536 4.25359 3 5.79999 3H7.79999" stroke="currentColor" stroke-width="1.5" stroke-linecap="round" />
  </symbol>
  <symbol id="icon-16" viewBox="0 0 20 20">
    <ns0:path d="M10.9442 7.72985L10.5096 6.60001C10.4285 6.38914 10.2259 6.25 10 6.25C9.77408 6.25 9.5715 6.38914 9.49042 6.60001L9.05583 7.72985C8.82133 8.3395 8.3395 8.82133 7.72985 9.05583L6.60001 9.49042C6.38914 9.5715 6.25 9.77408 6.25 10C6.25 10.2259 6.38914 10.4285 6.60001 10.5096L7.72985 10.9442C8.3395 11.1787 8.82133 11.6605 9.05583 12.2702L9.49042 13.4C9.5715 13.6108 9.77408 13.75 10 13.75C10.2259 13.75 10.4285 13.6108 10.5096 13.4L10.9442 12.2702C11.1787 11.6605 11.6605 11.1787 12.2702 10.9442L13.4 10.5096C13.6108 10.4285 13.75 10.2259 13.75 10C13.75 9.77408 13.6108 9.5715 13.4 9.49042L12.2702 9.05583C11.6605 8.82133 11.1787 8.3395 10.9442 7.72985Z" fill="currentColor" />
    <ns0:path d="M16.6667 11.875V12.8945C16.6667 13.4886 16.3505 14.0377 15.8367 14.3359L15 14.8216M3.33333 11.875V12.8945C3.33333 13.4886 3.64953 14.0377 4.16332 14.3359L4.99999 14.8216M8.33333 3.25392L9.16667 2.77279C9.68233 2.47507 10.3177 2.47507 10.8333 2.77279L11.6667 3.25392M15 5.17843L15.8367 5.66407C16.3505 5.96229 16.6667 6.51145 16.6667 7.10551V8.125M11.6667 16.7461L10.8333 17.2272C10.3177 17.5249 9.68233 17.5249 9.16667 17.2272L8.33333 16.7461M4.99999 5.17843L4.16332 5.66407C3.64953 5.96229 3.33333 6.51144 3.33333 7.10551V8.125" stroke="currentColor" stroke-width="1.5" stroke-linecap="round" stroke-linejoin="round" />
  </symbol>
  <symbol id="icon-17" viewBox="0 0 20 20">
    <ns0:path d="M11.9336 10.5H7.00273M9.31545 7.5H7.00273M11.6364 3H6.4C5.06818 3 4 3.76409 4 5.02853V13.5M16 13.5V15.9583C16 16.5336 15.5336 17 14.9583 17H10H5.72697C4.77319 17 4 16.2268 4 15.273V13.5M16 13.5V10.87M16 13.5H10H4" stroke="currentColor" stroke-width="1.5" stroke-linecap="round" stroke-linejoin="round" />
    <ns0:path d="M13.7398 5.11206L14.8586 4.55262C14.9426 4.51065 15.0106 4.44258 15.0526 4.35865L15.6121 3.23976C15.7719 2.92008 16.2281 2.92008 16.3879 3.23976L16.9474 4.35865C16.9894 4.44258 17.0574 4.51065 17.1414 4.55262L18.2602 5.11206C18.5799 5.2719 18.5799 5.7281 18.2602 5.88794L17.1414 6.44738C17.0574 6.48935 16.9894 6.55741 16.9474 6.64135L16.3879 7.76024C16.2281 8.07992 15.7719 8.07992 15.6121 7.76024L15.0526 6.64135C15.0106 6.55742 14.9426 6.48935 14.8586 6.44738L13.7398 5.88794C13.4201 5.7281 13.4201 5.2719 13.7398 5.11206Z" fill="currentColor" />
  </symbol>
  <symbol id="icon-18" viewBox="0 0 20 20">
    <ns0:path d="M8.09023 15.0028C8.09023 16.1058 6.95074 17 5.54512 17C4.13949 17 3 16.1058 3 15.0028C3 13.8998 4.13949 13.0057 5.54512 13.0057C6.95074 13.0057 8.09023 13.8998 8.09023 15.0028ZM8.09023 15.0028V6.42545C8.09023 5.35536 8.84358 4.41495 9.93629 4.12103L13.7558 3.09364C15.3816 2.65631 17 3.80585 17 5.39804V12.6063M17 12.6063C17 13.7092 15.8606 14.6034 14.4549 14.6034C13.0492 14.6034 11.9098 13.7092 11.9098 12.6063C11.9098 11.5032 13.0492 10.6091 14.4549 10.6091C15.8606 10.6091 17 11.5032 17 12.6063Z" stroke="currentColor" stroke-width="1.5" stroke-linejoin="round" />
  </symbol>
  <symbol id="icon-19" viewBox="0 0 20 20">
    <ns0:path d="M17.5 12.0833C17.5 13.2339 16.5701 14.1667 15.4195 14.1667C13.2501 14.1667 9.81002 14.1667 7.21215 14.1667C6.32809 14.1667 5.48215 14.5179 4.85702 15.143L2.5 17.5C2.5 13.1944 2.5 8.88889 2.5 4.58333C2.5 3.43274 3.43274 2.5 4.58333 2.5L15.4167 2.50001C16.5673 2.50001 17.5 3.43275 17.5 4.58334V8.33334V12.0833Z" stroke="currentColor" stroke-width="1.5" stroke-linecap="round" stroke-linejoin="round" />
    <ns0:path fill-rule="evenodd" clip-rule="evenodd" d="M10 5C10.4142 5 10.75 5.33579 10.75 5.75V6.48966L12.2369 6.48966C12.6584 6.48966 13 6.83133 13 7.25279V7.25279C13 7.67426 12.6584 8.01592 12.2369 8.01592L10.7646 8.01592C10.8154 8.61905 11.0505 9.07465 11.3224 9.38275C11.5788 9.67311 11.9691 9.89802 12.5745 9.96132C12.8033 9.98524 13 10.1614 13 10.3935V11.0914C13 11.3207 12.8039 11.51 12.562 11.4927C11.531 11.4192 10.6882 11.0342 10.0984 10.3659C10.0644 10.3273 10.0319 10.2877 10 10.2478C9.96811 10.2877 9.93563 10.3273 9.90157 10.3659C9.31178 11.0342 8.469 11.4192 7.43802 11.4927C7.21121 11.5089 7.02473 11.3435 7.00234 11.1338L7 11.0914V10.3935C7 10.1614 7.19673 9.98524 7.42552 9.96132C8.03094 9.89802 8.42122 9.67311 8.67761 9.38275C8.94948 9.07465 9.18466 8.61905 9.23542 8.01592C8.75679 8.01592 8.25657 8.01592 7.76313 8.01592C7.34167 8.01592 7 7.67426 7 7.25279V7.25279C7 6.83133 7.34167 6.48966 7.76313 6.48966L9.25001 6.48966V5.75C9.25001 5.33579 9.58579 5 10 5V5Z" fill="currentColor" />
  </symbol>
  <symbol id="icon-20" viewBox="0 0 20 20">
    <ns0:path d="M8.66333 13H14.4967M11.7883 10H14.4967M2.5 13.3334C2.5 14.7141 3.61929 16 5 16H15C16.3807 16 17.5 14.7141 17.5 13.3334V6.66669C17.5 5.28598 16.3807 4 15 4H9.16667" stroke="currentColor" stroke-width="1.5" stroke-linecap="round" stroke-linejoin="round" />
    <ns0:path d="M4.78564 3.54166C6.73827 5.49428 6.73826 8.6601 4.78564 10.6127M2.42862 5.89868C3.0795 6.54955 3.0795 7.60483 2.42862 8.2557" stroke="currentColor" stroke-width="1.5" stroke-linecap="round" />
  </symbol>
  <symbol id="icon-21" viewBox="0 0 20 20">
    <ns0:path d="M17.703 10.291l.75.028a.75.75 0 00-1.424-.357l.674.33zm-14.637-.204a.75.75 0 10-1.347.66l.674-.33.673-.33zM7.5 12.431l.085-.745-.085.745zm5.208-8.843a.75.75 0 00.584-1.382L13 2.897l-.292.691zM10 17.708v-.75A6.958 6.958 0 013.042 10h-1.5A8.458 8.458 0 0010 18.458v-.75zM2.292 10h.75A6.958 6.958 0 0110 3.042v-1.5A8.458 8.458 0 001.542 10h.75zm15.41.291l-.749-.027A6.958 6.958 0 0110 16.958v1.5a8.459 8.459 0 008.452-8.139l-.75-.028zm0 0l-.673-.33c-.057.118-.231.32-.629.559-.383.23-.907.454-1.554.65-1.292.393-2.993.65-4.846.65v1.5c1.98 0 3.83-.273 5.282-.714.726-.22 1.372-.489 1.89-.8.504-.303.963-.691 1.205-1.185l-.674-.33zM10 12.57v-.75c-.848 0-1.66-.047-2.415-.133l-.085.745-.085.745A22.88 22.88 0 0010 13.32v-.75zm-2.5-.138l.085-.745c-1.28-.146-2.375-.403-3.186-.72-.857-.337-1.234-.677-1.333-.879l-.673.33-.674.33c.362.74 1.215 1.255 2.133 1.615.966.378 2.194.658 3.563.814l.085-.745zM10 2.291v.75c.962 0 1.877.195 2.708.547l.292-.69.292-.692A8.434 8.434 0 0010 1.542v.75z" fill="currentColor" />
    <ns0:path d="M9.64 17.633C8.392 17.108 7.43 13.891 7.43 10c0-3.88.957-7.091 2.2-7.63" stroke="currentColor" stroke-width="1.5" stroke-linecap="round" />
    <ns0:path d="M14.24 5.362l1.119-.56a.434.434 0 00.194-.193l.56-1.12c.159-.319.615-.319.775 0l.56 1.12c.041.084.11.152.193.194l1.12.56c.319.159.319.615 0 .775l-1.12.56a.434.434 0 00-.194.193l-.56 1.12a.434.434 0 01-.775 0l-.56-1.12a.434.434 0 00-.193-.194l-1.12-.56a.434.434 0 010-.775z" fill="currentColor" />
  </symbol>
  <symbol id="icon-22" viewBox="0 0 20 20">
    <ns0:path d="M10.5 16H5C3.61929 16 2.5 14.8807 2.5 13.5V8H17.5V10.5" stroke="currentColor" stroke-width="1.5" stroke-linecap="round" />
    <ns0:path d="M13.2398 14.6121L14.3586 14.0526C14.4426 14.0106 14.5106 13.9426 14.5526 13.8586L15.1121 12.7398C15.2719 12.4201 15.7281 12.4201 15.8879 12.7398L16.4474 13.8586C16.4894 13.9426 16.5574 14.0106 16.6414 14.0526L17.7602 14.6121C18.0799 14.7719 18.0799 15.2281 17.7602 15.3879L16.6414 15.9474C16.5574 15.9894 16.4894 16.0574 16.4474 16.1414L15.8879 17.2602C15.7281 17.5799 15.2719 17.5799 15.1121 17.2602L14.5526 16.1414C14.5106 16.0574 14.4426 15.9894 14.3586 15.9474L13.2398 15.3879C12.9201 15.2281 12.9201 14.7719 13.2398 14.6121Z" fill="currentColor" />
    <ns0:path d="M17.5 8V5.2C17.5 4.53726 16.9627 4 16.3 4H3.7C3.03726 4 2.5 4.53726 2.5 5.2V8" stroke="currentColor" stroke-width="1.5" />
    <ns0:line x1="6.39952" y1="4.26035" x2="8.39952" y2="7.72445" stroke="currentColor" stroke-width="1.5" />
    <ns0:line x1="13.6005" y1="7.83911" x2="11.6005" y2="4.37501" stroke="currentColor" stroke-width="1.5" />
  </symbol>
  <symbol id="icon-23" viewBox="0 0 24 24">
    <ns0:path d="M10 9.5 8 12l2 2.5" />
    <ns0:path d="m14 9.5 2 2.5-2 2.5" />
    <ns0:rect width="18" height="18" x="3" y="3" rx="2" />
  </symbol>
  <symbol id="icon-24" viewBox="0 0 20 20">
    <ns0:path d="M16.875 13.5367C16.875 13.9997 16.4997 14.375 16.0368 14.375H3.96327C3.50031 14.375 3.125 13.9997 3.125 13.5367C3.125 13.4031 3.15696 13.2713 3.21822 13.1526L4.1665 11.3134C4.32966 10.997 4.42335 10.6494 4.44131 10.2938L4.58626 7.42413C4.7305 4.54901 7.11155 2.29166 10 2.29166C12.8884 2.29166 15.2695 4.54901 15.4137 7.42413L15.5587 10.2938C15.5767 10.6494 15.6703 10.997 15.8335 11.3134L16.7817 13.1526C16.843 13.2713 16.875 13.4031 16.875 13.5367Z" stroke="currentColor" stroke-width="1.5" stroke-linecap="round" stroke-linejoin="round" />
    <ns0:path d="M13.3332 14.375C13.3332 16.2159 11.8408 17.7083 9.99984 17.7083C8.15889 17.7083 6.6665 16.2159 6.6665 14.375" stroke="currentColor" stroke-width="1.5" stroke-linecap="round" stroke-linejoin="round" />
  </symbol>
  <symbol id="icon-25" viewBox="0 0 100 100">
    <circle cx="50" cy="50" r="42" stroke-width="4px" class="chakra-progress__track css-131d71n" />
    <circle cx="50" cy="50" r="42" stroke-width="4px" class="chakra-progress__indicator css-osbmls" stroke-linecap="round" stroke-dashoffset="66" stroke-dasharray="0 264" />
  </symbol>
  <symbol id="icon-26" viewBox="0 0 24 24">
    <ns0:path d="m9 18 6-6-6-6" />
  </symbol>
  <symbol id="icon-27" viewBox="0 0 24 24">
    <ns0:path d="M10.68 13.31a16 16 0 0 0 3.41 2.6l1.27-1.27a2 2 0 0 1 2.11-.45 12.84 12.84 0 0 0 2.81.7 2 2 0 0 1 1.72 2v3a2 2 0 0 1-2.18 2 19.79 19.79 0 0 1-8.63-3.07 19.42 19.42 0 0 1-3.33-2.67m-2.67-3.34a19.79 19.79 0 0 1-3.07-8.63A2 2 0 0 1 4.11 2h3a2 2 0 0 1 2 1.72 12.84 12.84 0 0 0 .7 2.81 2 2 0 0 1-.45 2.11L8.09 9.91" />
    <ns0:line x1="22" x2="2" y1="2" y2="22" />
  </symbol>
  <symbol id="icon-28" viewBox="0 0 24 24">
    <ns0:path d="M7.9 20A9 9 0 1 0 4 16.1L2 22Z" />
  </symbol>
  <symbol id="icon-29" viewBox="0 0 24 24">
    <ns0:path d="M4 19.5v-15A2.5 2.5 0 0 1 6.5 2H19a1 1 0 0 1 1 1v18a1 1 0 0 1-1 1H6.5a1 1 0 0 1 0-5H20" />
    <ns0:path d="M8 11h8" />
    <ns0:path d="M8 7h6" />
  </symbol>
  <symbol id="icon-30" viewBox="0 0 24 24">
    <ns0:path d="M4 22h14a2 2 0 0 0 2-2V7l-5-5H6a2 2 0 0 0-2 2v4" />
    <ns0:path d="M14 2v4a2 2 0 0 0 2 2h4" />
    <ns0:path d="M3 15h6" />
    <ns0:path d="M6 12v6" />
  </symbol>
  <symbol id="icon-31" viewBox="0 0 24 24">
    <ns0:path d="M12 2a3 3 0 0 0-3 3v7a3 3 0 0 0 6 0V5a3 3 0 0 0-3-3Z" />
    <ns0:path d="M19 10v2a7 7 0 0 1-14 0v-2" />
    <ns0:line x1="12" x2="12" y1="19" y2="22" />
  </symbol>
  <symbol id="icon-32" viewBox="0 0 100 100">
    <circle cx="50" cy="50" r="42" stroke-width="10px" class="chakra-progress__track css-131d71n" />
    <circle cx="50" cy="50" r="42" stroke-width="10px" class="chakra-progress__indicator css-osbmls" stroke-linecap="round" stroke-dashoffset="66" stroke-dasharray="0 264" />
  </symbol>
  <symbol id="icon-33" viewBox="0 0 16 16">
    <ns0:path d="M8.66677 1.99986C8.66677 1.63167 8.36829 1.33319 8.0001 1.33319C7.63191 1.33319 7.33344 1.63167 7.33344 1.99986V8.39038L5.13817 6.19512C4.87782 5.93477 4.45571 5.93477 4.19536 6.19512C3.93501 6.45547 3.93501 6.87758 4.19536 7.13793L7.5287 10.4713C7.78905 10.7316 8.21116 10.7316 8.47151 10.4713L11.8048 7.13793C12.0652 6.87758 12.0652 6.45547 11.8048 6.19512C11.5445 5.93477 11.1224 5.93477 10.862 6.19512L8.66677 8.39038V1.99986Z" fill="currentColor" />
    <ns0:path d="M2.0001 9.33319C2.36829 9.33319 2.66677 9.63167 2.66677 9.99986V12.6665C2.66677 12.8433 2.73701 13.0129 2.86203 13.1379C2.98705 13.263 3.15662 13.3332 3.33344 13.3332H12.6668C12.8436 13.3332 13.0131 13.263 13.1382 13.1379C13.2632 13.0129 13.3334 12.8433 13.3334 12.6665V9.99986C13.3334 9.63167 13.6319 9.33319 14.0001 9.33319C14.3683 9.33319 14.6668 9.63167 14.6668 9.99986V12.6665C14.6668 13.197 14.4561 13.7057 14.081 14.0807C13.7059 14.4558 13.1972 14.6665 12.6668 14.6665H3.33344C2.803 14.6665 2.29429 14.4558 1.91922 14.0807C1.54415 13.7057 1.33344 13.197 1.33344 12.6665V9.99986C1.33344 9.63167 1.63191 9.33319 2.0001 9.33319Z" fill="currentColor" />
  </symbol>
  <symbol id="icon-34" viewBox="0 0 24 24">
    <ns0:path d="M3 6h18" />
    <ns0:path d="M19 6v14c0 1-1 2-2 2H7c-1 0-2-1-2-2V6" />
    <ns0:path d="M8 6V4c0-1 1-2 2-2h4c1 0 2 1 2 2v2" />
  </symbol>
  <symbol id="icon-35" viewBox="0 0 16 16">
    <ns0:path d="M8.66677 1.99986C8.66677 1.63167 8.36829 1.33319 8.0001 1.33319C7.63191 1.33319 7.33344 1.63167 7.33344 1.99986V8.39038L5.13817 6.19512C4.87782 5.93477 4.45571 5.93477 4.19536 6.19512C3.93501 6.45547 3.93501 6.87758 4.19536 7.13793L7.5287 10.4713C7.78905 10.7316 8.21116 10.7316 8.47151 10.4713L11.8048 7.13793C12.0652 6.87758 12.0652 6.45547 11.8048 6.19512C11.5445 5.93477 11.1224 5.93477 10.862 6.19512L8.66677 8.39038V1.99986Z" fill="currentColor" />
    <ns0:path d="M2.0001 9.33319C2.36829 9.33319 2.66677 9.63167 2.66677 9.99986V12.6665C2.66677 12.8433 2.73701 13.0129 2.86203 13.1379C2.98705 13.263 3.15662 13.3332 3.33344 13.3332H12.6668C12.8436 13.3332 13.0131 13.263 13.1382 13.1379C13.2632 13.0129 13.3334 12.8433 13.3334 12.6665V9.99986C13.3334 9.63167 13.6319 9.33319 14.0001 9.33319C14.3683 9.33319 14.6668 9.63167 14.6668 9.99986V12.6665C14.6668 13.197 14.4561 13.7057 14.081 14.0807C13.7059 14.4558 13.1972 14.6665 12.6668 14.6665H3.33344C2.803 14.6665 2.29429 14.4558 1.91922 14.0807C1.54415 13.7057 1.33344 13.197 1.33344 12.6665V9.99986C1.33344 9.63167 1.63191 9.33319 2.0001 9.33319Z" fill="currentColor" />
  </symbol>
  <symbol id="icon-36" viewBox="0 0 24 24">
    <ns0:path d="M3 6h18" />
    <ns0:path d="M19 6v14c0 1-1 2-2 2H7c-1 0-2-1-2-2V6" />
    <ns0:path d="M8 6V4c0-1 1-2 2-2h4c1 0 2 1 2 2v2" />
  </symbol>
  <symbol id="icon-37" viewBox="0 0 24 24">
    <ns0:path d="M18 6 7 17l-5-5" />
    <ns0:path d="m22 10-7.5 7.5L13 16" />
  </symbol>
  <symbol id="icon-38" viewBox="0 0 24 24">
    <ns0:path d="M11 12H3" />
    <ns0:path d="M16 6H3" />
    <ns0:path d="M16 18H3" />
    <ns0:path d="m19 10-4 4" />
    <ns0:path d="m15 10 4 4" />
  </symbol>
  <symbol id="icon-39" viewBox="0 0 24 24">
    <ns0:path d="M18 6 6 18" />
    <ns0:path d="m6 6 12 12" />
  </symbol>
  <symbol id="icon-40" viewBox="0 0 24 24">
    <ns0:path d="M5 12h14" />
    <ns0:path d="M12 5v14" />
  </symbol>
  <symbol id="icon-41" viewBox="0 0 24 24">
    <ns0:path d="M18 6 6 18" />
    <ns0:path d="m6 6 12 12" />
  </symbol>
  <symbol id="icon-42" viewBox="0 0 24 24">
    <ns0:path d="M5 12h14" />
    <ns0:path d="M12 5v14" />
  </symbol>
  <symbol id="icon-43" viewBox="0 0 24 24">
    <ns0:path d="M18 6 6 18" />
    <ns0:path d="m6 6 12 12" />
  </symbol>
  <symbol id="icon-44" viewBox="0 0 24 24">
    <ns0:path d="M5 12h14" />
    <ns0:path d="M12 5v14" />
  </symbol>
</svg>