<svg width="1.25rem" height="1.25rem" viewBox="0 0 20 20"
                                                                 fill="none" xmlns="http://www.w3.org/2000/svg"
                                                                 color="currentColor">
                                                                <g clip-path="url(#clip0_251_17)" stroke="currentColor"
                                                                   stroke-width="1.5">
                                                                    <path d="M12.083 14.375v-2.917l2.292 1.459-2.292 1.458z"
                                                                          fill="currentColor"
                                                                          stroke-linejoin="round"></path>
                                                                    <path d="M16.459 7.292H9.375c-1.15 0-2.083.933-2.083 2.083v7.084c0 1.15.933 2.083 2.083 2.083h7.084c1.15 0 2.083-.933 2.083-2.083V9.375c0-1.15-.933-2.083-2.083-2.083z"></path>
                                                                    <path d="M7 12.708H3.542a2.082 2.082 0 01-2.084-2.083V3.542c0-1.15.933-2.084 2.084-2.084h7.083c1.15 0 2.083.933 2.083 2.084v.833"
                                                                          stroke-linecap="round"></path>
                                                                    <path d="M1.458 10.417L3.584 9a1.876 1.876 0 012.022-.037L7.292 10"
                                                                          stroke-linejoin="round"></path>
                                                                    <path d="M5.104 5.625a.521.521 0 100-1.042.521.521 0 000 1.042z"
                                                                          fill="currentColor"></path>
                                                                </g>
                                                                <defs>
                                                                    <clippath id="clip0_251_17">
                                                                        <path fill="#fff" d="M0 0H20V20H0z"></path>
                                                                    </clippath>
                                                                </defs>
                                                            </svg>