<svg width="1.25rem" height="1.25rem" viewBox="0 0 20 20"
                                                                 fill="none" xmlns="http://www.w3.org/2000/svg"
                                                                 color="currentColor">
                                                                <path d="M8.09023 15.0028C8.09023 16.1058 6.95074 17 5.54512 17C4.13949 17 3 16.1058 3 15.0028C3 13.8998 4.13949 13.0057 5.54512 13.0057C6.95074 13.0057 8.09023 13.8998 8.09023 15.0028ZM8.09023 15.0028V6.42545C8.09023 5.35536 8.84358 4.41495 9.93629 4.12103L13.7558 3.09364C15.3816 2.65631 17 3.80585 17 5.39804V12.6063M17 12.6063C17 13.7092 15.8606 14.6034 14.4549 14.6034C13.0492 14.6034 11.9098 13.7092 11.9098 12.6063C11.9098 11.5032 13.0492 10.6091 14.4549 10.6091C15.8606 10.6091 17 11.5032 17 12.6063Z"
                                                                      stroke="currentColor" stroke-width="1.5"
                                                                      stroke-linejoin="round"></path>
                                                            </svg>