<svg width=1.2rem height=1.2rem
                                                                 class="w-[18px] h-[18px] w-3.5 h-3.5"
                                                                 viewBox="0 0 16 16" fill=none
                                                                 xmlns=http://www.w3.org/2000/svg>
                                                                <path d="M8.66677 1.99986C8.66677 1.63167 8.36829 1.33319 8.0001 1.33319C7.63191 1.33319 7.33344 1.63167 7.33344 1.99986V8.39038L5.13817 6.19512C4.87782 5.93477 4.45571 5.93477 4.19536 6.19512C3.93501 6.45547 3.93501 6.87758 4.19536 7.13793L7.5287 10.4713C7.78905 10.7316 8.21116 10.7316 8.47151 10.4713L11.8048 7.13793C12.0652 6.87758 12.0652 6.45547 11.8048 6.19512C11.5445 5.93477 11.1224 5.93477 10.862 6.19512L8.66677 8.39038V1.99986Z"
                                                                      fill=currentColor></path>
                                                                <path d="M2.0001 9.33319C2.36829 9.33319 2.66677 9.63167 2.66677 9.99986V12.6665C2.66677 12.8433 2.73701 13.0129 2.86203 13.1379C2.98705 13.263 3.15662 13.3332 3.33344 13.3332H12.6668C12.8436 13.3332 13.0131 13.263 13.1382 13.1379C13.2632 13.0129 13.3334 12.8433 13.3334 12.6665V9.99986C13.3334 9.63167 13.6319 9.33319 14.0001 9.33319C14.3683 9.33319 14.6668 9.63167 14.6668 9.99986V12.6665C14.6668 13.197 14.4561 13.7057 14.081 14.0807C13.7059 14.4558 13.1972 14.6665 12.6668 14.6665H3.33344C2.803 14.6665 2.29429 14.4558 1.91922 14.0807C1.54415 13.7057 1.33344 13.197 1.33344 12.6665V9.99986C1.33344 9.63167 1.63191 9.33319 2.0001 9.33319Z"
                                                                      fill=currentColor></path>
                                                            </svg>