<svg width="1.25rem" height="1.25rem" viewBox="0 0 20 20"
                                                                 fill="none" xmlns="http://www.w3.org/2000/svg"
                                                                 color="currentColor">
                                                                <path d="M10.9442 7.72985L10.5096 6.60001C10.4285 6.38914 10.2259 6.25 10 6.25C9.77408 6.25 9.5715 6.38914 9.49042 6.60001L9.05583 7.72985C8.82133 8.3395 8.3395 8.82133 7.72985 9.05583L6.60001 9.49042C6.38914 9.5715 6.25 9.77408 6.25 10C6.25 10.2259 6.38914 10.4285 6.60001 10.5096L7.72985 10.9442C8.3395 11.1787 8.82133 11.6605 9.05583 12.2702L9.49042 13.4C9.5715 13.6108 9.77408 13.75 10 13.75C10.2259 13.75 10.4285 13.6108 10.5096 13.4L10.9442 12.2702C11.1787 11.6605 11.6605 11.1787 12.2702 10.9442L13.4 10.5096C13.6108 10.4285 13.75 10.2259 13.75 10C13.75 9.77408 13.6108 9.5715 13.4 9.49042L12.2702 9.05583C11.6605 8.82133 11.1787 8.3395 10.9442 7.72985Z"
                                                                      fill="currentColor"></path>
                                                                <path d="M16.6667 11.875V12.8945C16.6667 13.4886 16.3505 14.0377 15.8367 14.3359L15 14.8216M3.33333 11.875V12.8945C3.33333 13.4886 3.64953 14.0377 4.16332 14.3359L4.99999 14.8216M8.33333 3.25392L9.16667 2.77279C9.68233 2.47507 10.3177 2.47507 10.8333 2.77279L11.6667 3.25392M15 5.17843L15.8367 5.66407C16.3505 5.96229 16.6667 6.51145 16.6667 7.10551V8.125M11.6667 16.7461L10.8333 17.2272C10.3177 17.5249 9.68233 17.5249 9.16667 17.2272L8.33333 16.7461M4.99999 5.17843L4.16332 5.66407C3.64953 5.96229 3.33333 6.51144 3.33333 7.10551V8.125"
                                                                      stroke="currentColor" stroke-width="1.5"
                                                                      stroke-linecap="round" stroke-linejoin="round"></path>
                                                            </svg>